<mxfile host="app.diagrams.net" modified="2023-03-14T11:01:31.629Z" agent="5.0 (Windows NT 10.0; Win64; x64) AppleWebKit/537.36 (KHTML, like Gecko) Chrome/109.0.0.0 Safari/537.36" etag="tRGHoGrNryMIIit4lK7T" version="21.0.6" type="github">
  <diagram id="C5RBs43oDa-KdzZeNtuy" name="Page-1">
    <mxGraphModel dx="1434" dy="796" grid="1" gridSize="10" guides="1" tooltips="1" connect="1" arrows="1" fold="1" page="1" pageScale="1" pageWidth="827" pageHeight="1169" math="0" shadow="0">
      <root>
        <mxCell id="WIyWlLk6GJQsqaUBKTNV-0" />
        <mxCell id="WIyWlLk6GJQsqaUBKTNV-1" parent="WIyWlLk6GJQsqaUBKTNV-0" />
        <mxCell id="Z13cCP08eFJkeLiJJ5B0-0" value="" style="edgeStyle=orthogonalEdgeStyle;rounded=0;orthogonalLoop=1;jettySize=auto;html=1;" edge="1" parent="WIyWlLk6GJQsqaUBKTNV-1" source="Z13cCP08eFJkeLiJJ5B0-1" target="Z13cCP08eFJkeLiJJ5B0-3">
          <mxGeometry relative="1" as="geometry" />
        </mxCell>
        <mxCell id="Z13cCP08eFJkeLiJJ5B0-1" value="Начало" style="rounded=1;whiteSpace=wrap;html=1;fontSize=12;glass=0;strokeWidth=1;shadow=0;" vertex="1" parent="WIyWlLk6GJQsqaUBKTNV-1">
          <mxGeometry x="160" y="80" width="120" height="40" as="geometry" />
        </mxCell>
        <mxCell id="Z13cCP08eFJkeLiJJ5B0-2" value="" style="edgeStyle=orthogonalEdgeStyle;rounded=0;orthogonalLoop=1;jettySize=auto;html=1;" edge="1" parent="WIyWlLk6GJQsqaUBKTNV-1" source="Z13cCP08eFJkeLiJJ5B0-3" target="Z13cCP08eFJkeLiJJ5B0-5">
          <mxGeometry relative="1" as="geometry" />
        </mxCell>
        <mxCell id="Z13cCP08eFJkeLiJJ5B0-3" value="Инициализируем&amp;nbsp; массив &lt;br&gt;случайными элементами" style="shape=parallelogram;perimeter=parallelogramPerimeter;whiteSpace=wrap;html=1;fixedSize=1;rounded=1;glass=0;strokeWidth=1;shadow=0;" vertex="1" parent="WIyWlLk6GJQsqaUBKTNV-1">
          <mxGeometry x="120" y="140" width="200" height="70" as="geometry" />
        </mxCell>
        <mxCell id="Z13cCP08eFJkeLiJJ5B0-4" value="" style="edgeStyle=orthogonalEdgeStyle;rounded=0;orthogonalLoop=1;jettySize=auto;html=1;" edge="1" parent="WIyWlLk6GJQsqaUBKTNV-1" source="Z13cCP08eFJkeLiJJ5B0-5" target="Z13cCP08eFJkeLiJJ5B0-7">
          <mxGeometry relative="1" as="geometry" />
        </mxCell>
        <mxCell id="Z13cCP08eFJkeLiJJ5B0-5" value="Выводим неотсортированный массив&amp;nbsp;" style="shape=parallelogram;perimeter=parallelogramPerimeter;whiteSpace=wrap;html=1;fixedSize=1;rounded=1;glass=0;strokeWidth=1;shadow=0;" vertex="1" parent="WIyWlLk6GJQsqaUBKTNV-1">
          <mxGeometry x="115" y="230" width="210" height="60" as="geometry" />
        </mxCell>
        <mxCell id="Z13cCP08eFJkeLiJJ5B0-6" value="" style="edgeStyle=orthogonalEdgeStyle;rounded=0;orthogonalLoop=1;jettySize=auto;html=1;" edge="1" parent="WIyWlLk6GJQsqaUBKTNV-1" source="Z13cCP08eFJkeLiJJ5B0-7" target="Z13cCP08eFJkeLiJJ5B0-9">
          <mxGeometry relative="1" as="geometry" />
        </mxCell>
        <mxCell id="Z13cCP08eFJkeLiJJ5B0-7" value="вызываем функцию&amp;nbsp;&lt;br&gt;insertion_sort()" style="shape=parallelogram;perimeter=parallelogramPerimeter;whiteSpace=wrap;html=1;fixedSize=1;rounded=1;glass=0;strokeWidth=1;shadow=0;" vertex="1" parent="WIyWlLk6GJQsqaUBKTNV-1">
          <mxGeometry x="135" y="310" width="170" height="60" as="geometry" />
        </mxCell>
        <mxCell id="Z13cCP08eFJkeLiJJ5B0-8" value="" style="edgeStyle=orthogonalEdgeStyle;rounded=0;orthogonalLoop=1;jettySize=auto;html=1;" edge="1" parent="WIyWlLk6GJQsqaUBKTNV-1" source="Z13cCP08eFJkeLiJJ5B0-9" target="Z13cCP08eFJkeLiJJ5B0-10">
          <mxGeometry relative="1" as="geometry" />
        </mxCell>
        <mxCell id="Z13cCP08eFJkeLiJJ5B0-9" value="Выводим отсортированный массив&amp;nbsp;" style="shape=parallelogram;perimeter=parallelogramPerimeter;whiteSpace=wrap;html=1;fixedSize=1;rounded=1;glass=0;strokeWidth=1;shadow=0;" vertex="1" parent="WIyWlLk6GJQsqaUBKTNV-1">
          <mxGeometry x="102.5" y="390" width="235" height="60" as="geometry" />
        </mxCell>
        <mxCell id="Z13cCP08eFJkeLiJJ5B0-10" value="Конец&lt;br&gt;" style="rounded=1;whiteSpace=wrap;html=1;glass=0;strokeWidth=1;shadow=0;" vertex="1" parent="WIyWlLk6GJQsqaUBKTNV-1">
          <mxGeometry x="160" y="470" width="120" height="60" as="geometry" />
        </mxCell>
      </root>
    </mxGraphModel>
  </diagram>
</mxfile>
